<svg width="60" height="60" viewBox="0 0 60 60" fill="none" xmlns="http://www.w3.org/2000/svg">
<rect width="59.1429" height="60" rx="29.5714" fill="#212121"/>
<g clip-path="url(#clip0_5_94)">
<path d="M26.4428 49.8956C16.7951 48.174 9.47998 39.8433 9.47998 29.791C9.47998 18.62 18.6199 9.4801 29.7909 9.4801C40.9619 9.4801 50.1018 18.62 50.1018 29.791C50.1018 39.8433 42.7867 48.174 33.139 49.8956L32.0203 48.9832H27.5535L26.4428 49.8956Z" fill="url(#paint0_linear_5_94)"/>
<path d="M37.709 35.48L38.6214 29.7914H33.2422V25.8323C33.2422 24.2059 33.8531 22.992 36.2888 22.992H38.9308V17.8111C37.5106 17.6048 35.8842 17.4065 34.464 17.4065C29.7909 17.4065 26.5459 20.2468 26.5459 25.3246V29.7914H21.4682V35.48H26.5459V49.8008C27.6646 50.0071 28.7833 50.1023 29.894 50.1023C31.0127 50.1023 32.1314 49.9991 33.2422 49.8008V35.48H37.709Z" fill="#212121"/>
</g>
<defs>
<linearGradient id="paint0_linear_5_94" x1="29.791" y1="48.6896" x2="29.791" y2="9.4706" gradientUnits="userSpaceOnUse">
<stop offset="1" stop-color="#D7D7D7"/>
</linearGradient>
<clipPath id="clip0_5_94">
<rect width="40.6218" height="40.6218" fill="white" transform="translate(9.47998 9.4801)"/>
</clipPath>
</defs>
</svg>
