<svg width="60" height="60" viewBox="0 0 60 60" fill="none" xmlns="http://www.w3.org/2000/svg">
<rect width="59.1429" height="60" rx="29.5714" fill="#212121"/>
<g clip-path="url(#clip0_5_91)">
<path d="M22.7541 13.1512C20.9889 13.2344 19.7835 13.5162 18.7297 13.9301C17.6391 14.3552 16.7147 14.9255 15.7949 15.8486C14.8753 16.7717 14.3087 17.6967 13.8868 18.7892C13.4784 19.8451 13.2016 21.0516 13.1236 22.8178C13.0457 24.5839 13.0284 25.1517 13.0371 29.657C13.0457 34.162 13.0656 34.7268 13.1511 36.4966C13.2355 38.2614 13.5161 39.4665 13.9302 40.5207C14.356 41.6113 14.9256 42.5354 15.8491 43.4555C16.7725 44.3755 17.6968 44.9407 18.7917 45.3633C19.8469 45.7711 21.0536 46.0492 22.8195 46.1264C24.5854 46.2039 25.1537 46.2218 29.6576 46.2131C34.1615 46.2046 34.7286 46.1845 36.498 46.1006C38.2676 46.0167 39.4662 45.734 40.5208 45.3218C41.6114 44.8952 42.5362 44.3264 43.4555 43.4028C44.3749 42.479 44.941 41.5533 45.3627 40.4603C45.7715 39.4051 46.0492 38.1985 46.1258 36.4339C46.2033 34.663 46.2215 34.0977 46.2129 29.5933C46.2042 25.0887 46.1839 24.5239 46.1 22.7547C46.0161 20.9855 45.735 19.7841 45.3212 18.7293C44.8949 17.6386 44.3258 16.7153 43.4029 15.7945C42.4798 14.8738 41.5532 14.3081 40.4608 13.8874C39.4048 13.4788 38.1989 13.2005 36.433 13.1242C34.6671 13.0479 34.0988 13.0281 29.5932 13.037C25.0876 13.0456 24.5236 13.0649 22.7541 13.1512ZM22.9479 43.1419C21.3304 43.0715 20.4521 42.8028 19.8668 42.5778C19.0917 42.2792 18.5396 41.9182 17.9563 41.3405C17.3729 40.7629 17.0147 40.2088 16.712 39.4354C16.4848 38.8501 16.211 37.9727 16.1354 36.3552C16.0531 34.607 16.0359 34.0821 16.0262 29.6528C16.0165 25.2237 16.0335 24.6993 16.1101 22.9505C16.1792 21.3343 16.4496 20.4551 16.6742 19.87C16.9728 19.094 17.3325 18.5428 17.9115 17.9599C18.4905 17.3769 19.0429 17.0179 19.817 16.7153C20.4018 16.487 21.279 16.2156 22.8958 16.1386C24.6454 16.0557 25.1696 16.0391 29.5982 16.0294C34.0268 16.0197 34.5524 16.0363 36.3026 16.1135C37.9188 16.1837 38.7984 16.4515 39.3828 16.6775C40.1581 16.9762 40.71 17.3348 41.2929 17.9149C41.8759 18.4947 42.2352 19.0452 42.5378 19.8209C42.7664 20.4039 43.0379 21.2808 43.1142 22.8988C43.1974 24.6483 43.2164 25.173 43.2242 29.6011C43.2323 34.0293 43.2166 34.5552 43.1399 36.3035C43.0694 37.921 42.8012 38.7996 42.5759 39.3856C42.2772 40.1604 41.9174 40.7128 41.338 41.2954C40.7587 41.8782 40.2069 42.2371 39.4325 42.5397C38.8485 42.7677 37.9702 43.0397 36.3547 43.1167C34.605 43.199 34.0808 43.2163 29.6506 43.226C25.2204 43.2356 24.6975 43.2177 22.9479 43.1419ZM36.4725 20.7583C36.4732 21.152 36.5906 21.5368 36.8099 21.8638C37.0293 22.1908 37.3407 22.4455 37.7047 22.5955C38.0688 22.7456 38.4692 22.7843 38.8553 22.7068C39.2413 22.6292 39.5958 22.439 39.8737 22.16C40.1516 21.881 40.3405 21.5259 40.4166 21.1396C40.4927 20.7532 40.4525 20.353 40.3011 19.9894C40.1497 19.6259 39.8939 19.3155 39.566 19.0974C39.2381 18.8793 38.853 18.7633 38.4592 18.7641C37.9313 18.7652 37.4255 18.9759 37.053 19.3499C36.6804 19.7238 36.4716 20.2304 36.4725 20.7583ZM21.1067 29.6416C21.116 34.3466 24.9371 38.1519 29.6409 38.1431C34.345 38.1341 38.153 34.3134 38.1441 29.6085C38.1351 24.9035 34.3132 21.0971 29.6086 21.1064C24.9039 21.1156 21.0979 24.9373 21.1067 29.6416ZM24.095 29.6357C24.0929 28.542 24.4151 27.4722 25.0209 26.5616C25.6267 25.651 26.489 24.9405 27.4986 24.5199C28.5083 24.0994 29.62 23.9877 30.6931 24.1989C31.7662 24.4102 32.7526 24.9349 33.5275 25.7067C34.3024 26.4786 34.8311 27.4629 35.0466 28.5351C35.2621 29.6074 35.1548 30.7195 34.7383 31.7308C34.3217 32.7421 33.6147 33.6072 32.7065 34.2167C31.7983 34.8261 30.7298 35.1526 29.6361 35.1548C28.9098 35.1563 28.1904 35.0148 27.5189 34.7382C26.8473 34.4617 26.2369 34.0555 25.7223 33.543C25.2078 33.0305 24.7992 32.4217 24.52 31.7512C24.2408 31.0808 24.0964 30.3619 24.095 29.6357Z" fill="#D7D7D7"/>
</g>
<defs>
<clipPath id="clip0_5_91">
<rect width="33.18" height="33.18" fill="white" transform="translate(13.035 13.035)"/>
</clipPath>
</defs>
</svg>
