<svg width="60" height="60" viewBox="0 0 60 60" fill="none" xmlns="http://www.w3.org/2000/svg">
<rect width="59.1429" height="60" rx="29.5714" fill="#212121"/>
<path d="M29.7354 9.6001C24.36 9.6001 19.2 11.7682 15.402 15.6238C11.6009 19.4794 9.46277 24.7142 9.46277 30.1665C9.46277 35.6189 11.6009 40.8536 15.402 44.7092C19.2 48.5648 24.36 50.7329 29.7354 50.7329C35.1108 50.7329 40.2708 48.5648 44.0687 44.7092C47.8698 40.8536 50.008 35.6189 50.008 30.1665C50.008 24.7142 47.8698 19.4794 44.0687 15.6238C40.2708 11.7682 35.1108 9.6001 29.7354 9.6001Z" fill="url(#paint0_linear_5_87)"/>
<path d="M18.6394 29.9489C24.5502 27.337 28.4906 25.6149 30.4609 24.7829C36.0929 22.4072 37.2617 21.9945 38.0251 21.9806C38.193 21.9778 38.5668 22.0199 38.8107 22.2201C39.0134 22.3888 39.0704 22.617 39.0989 22.777C39.1242 22.9371 39.1591 23.3018 39.1306 23.5865C38.8265 26.8386 37.5056 34.7303 36.8341 38.3728C36.5522 39.9141 35.9915 40.4308 35.4498 40.4812C34.2715 40.5911 33.3782 39.692 32.2379 38.9339C30.4545 37.7471 29.4473 37.0087 27.7146 35.8508C25.7127 34.5127 27.0114 33.7772 28.1517 32.5753C28.4495 32.2607 33.638 27.4742 33.7362 27.0401C33.7488 26.9858 33.7615 26.7833 33.6411 26.6766C33.5239 26.5696 33.3497 26.6062 33.223 26.6352C33.0425 26.6763 30.1948 28.5877 24.6705 32.369C23.8628 32.9327 23.1311 33.2074 22.4722 33.193C21.75 33.1772 20.3563 32.7778 19.3205 32.4365C18.0534 32.0178 17.043 31.7964 17.1316 31.0852C17.176 30.715 17.6796 30.3362 18.6394 29.9489Z" fill="#212121"/>
<defs>
<linearGradient id="paint0_linear_5_87" x1="2036.72" y1="9.6001" x2="2036.72" y2="4122.88" gradientUnits="userSpaceOnUse">
<stop offset="1" stop-color="#D7D7D7"/>
</linearGradient>
</defs>
</svg>
