<svg width="583" height="90" viewBox="0 0 583 90" fill="none" xmlns="http://www.w3.org/2000/svg">
<path d="M7.62939e-06 89.6V79.488L51.072 11.136L52.992 13.312H3.32801V-3.05176e-05H68.224V9.98397L17.408 78.464L15.36 76.288H69.632V89.6H7.62939e-06ZM89.239 89.6V-3.05176e-05H145.687V13.312H103.063V76.288H145.687V89.6H89.239ZM95.511 50.304V36.992H138.647V50.304H95.511ZM167.864 89.6V-3.05176e-05H180.28L235.064 73.344L233.016 74.496C232.675 72.3626 232.376 70.0586 232.12 67.584C231.864 65.024 231.608 62.336 231.352 59.52C231.181 56.6186 231.011 53.5893 230.84 50.432C230.755 47.1893 230.669 43.8186 230.584 40.32C230.499 36.8213 230.456 33.1946 230.456 29.44V-3.05176e-05H244.28V89.6H231.608L177.72 18.944L179.128 17.152C179.555 22.3573 179.896 26.7946 180.152 30.464C180.493 34.048 180.749 37.12 180.92 39.68C181.176 42.1546 181.347 44.2026 181.432 45.824C181.517 47.36 181.56 48.64 181.56 49.664C181.645 50.688 181.688 51.584 181.688 52.352V89.6H167.864ZM286.388 89.6V13.312H261.3V-3.05176e-05H326.068V13.312H300.212V89.6H286.388ZM343.114 89.6V-3.05176e-05H381.258C386.378 -3.05176e-05 391.071 1.27997 395.338 3.83997C399.69 6.31464 403.146 9.72797 405.706 14.08C408.266 18.3466 409.546 23.168 409.546 28.544C409.546 33.408 408.266 37.9306 405.706 42.112C403.146 46.2933 399.733 49.664 395.466 52.224C391.199 54.6986 386.463 55.936 381.258 55.936H356.938V89.6H343.114ZM396.362 89.6L373.578 49.152L387.786 45.952L413.13 89.728L396.362 89.6ZM356.938 42.624H382.538C385.013 42.624 387.231 42.0266 389.194 40.832C391.157 39.552 392.693 37.8453 393.802 35.712C394.911 33.4933 395.466 31.0613 395.466 28.416C395.466 25.4293 394.741 22.8266 393.29 20.608C391.925 18.304 389.962 16.512 387.402 15.232C384.927 13.952 382.111 13.312 378.954 13.312H356.938V42.624ZM449.803 89.6V44.928L450.699 51.2L414.475 -3.05176e-05H431.115L458.763 39.68L455.563 39.296L480.523 -3.05176e-05H496.395L461.707 52.608L463.627 43.904V89.6H449.803ZM564.767 89.6L536.991 49.408L501.407 -3.05176e-05H518.943L546.079 39.68L582.303 89.6H564.767ZM500.767 89.6L534.943 40.832L543.519 50.944L517.023 89.6H500.767ZM548.127 48L539.679 38.272L564.767 -3.05176e-05H581.023L548.127 48Z" fill="#D7D7D7" fill-opacity="0.1"/>
</svg>
